<mxfile host="app.diagrams.net" modified="2022-12-21T14:02:19.084Z" agent="5.0 (Windows NT 10.0; Win64; x64) AppleWebKit/537.36 (KHTML, like Gecko) Chrome/108.0.0.0 Safari/537.36 Edg/108.0.1462.54" version="20.7.4" etag="8Z0tuonl4TtdZR_BkqB5" type="github">
  <diagram id="crbb2KGGYZoBifp372wY" name="Page-1">
    <mxGraphModel dx="1004" dy="581" grid="1" gridSize="10" guides="1" tooltips="1" connect="1" arrows="1" fold="1" page="1" pageScale="1" pageWidth="1100" pageHeight="850" math="0" shadow="0">
      <root>
        <mxCell id="0" />
        <mxCell id="1" parent="0" />
        <mxCell id="AvSDs4exWmLBfjFt9QHg-1" value="" style="shape=process;whiteSpace=wrap;html=1;backgroundOutline=1;" vertex="1" parent="1">
          <mxGeometry x="200" y="200" width="100" height="30" as="geometry" />
        </mxCell>
        <mxCell id="AvSDs4exWmLBfjFt9QHg-2" value="" style="shape=flexArrow;endArrow=classic;html=1;rounded=0;" edge="1" parent="1">
          <mxGeometry width="50" height="50" relative="1" as="geometry">
            <mxPoint x="300" y="214.5" as="sourcePoint" />
            <mxPoint x="390" y="214.5" as="targetPoint" />
          </mxGeometry>
        </mxCell>
        <mxCell id="AvSDs4exWmLBfjFt9QHg-3" value="" style="sketch=0;aspect=fixed;html=1;points=[];align=center;image;fontSize=12;image=img/lib/mscae/Machine_Learning_Service_Workspaces.svg;" vertex="1" parent="1">
          <mxGeometry x="390" y="190" width="46" height="50" as="geometry" />
        </mxCell>
      </root>
    </mxGraphModel>
  </diagram>
</mxfile>
